<svg width="14" height="14" viewBox="0 0 14 14" fill="none" xmlns="http://www.w3.org/2000/svg">
<path d="M10.4852 4.23505C10.4189 4.23505 10.3553 4.20871 10.3084 4.16182C10.2616 4.11494 10.2352 4.05135 10.2352 3.98505C10.2352 3.91874 10.2616 3.85515 10.3084 3.80827C10.3553 3.76139 10.4189 3.73505 10.4852 3.73505M10.4852 4.23505C10.5515 4.23505 10.6151 4.20871 10.662 4.16182C10.7089 4.11494 10.7352 4.05135 10.7352 3.98505C10.7352 3.91874 10.7089 3.85515 10.662 3.80827C10.6151 3.76139 10.5515 3.73505 10.4852 3.73505" stroke="black" stroke-linecap="round" stroke-linejoin="round"/>
<path d="M1.01022 4.02204C1.01022 3.33963 1.2813 2.68518 1.76383 2.20265C2.24636 1.72012 2.90081 1.44904 3.58322 1.44904H10.4452C10.7831 1.44904 11.1177 1.51559 11.4299 1.64489C11.742 1.7742 12.0257 1.96372 12.2646 2.20265C12.5035 2.44158 12.6931 2.72522 12.8224 3.03739C12.9517 3.34956 13.0182 3.68414 13.0182 4.02204V10.884C13.0182 11.5664 12.7471 12.2209 12.2646 12.7034C11.7821 13.186 11.1276 13.457 10.4452 13.457H3.58222C2.89981 13.457 2.24536 13.186 1.76283 12.7034C1.2803 12.2209 1.00922 11.5664 1.00922 10.884V4.02104L1.01022 4.02204Z" stroke="black" stroke-linecap="round" stroke-linejoin="round"/>
<path d="M4.46422 7.45302C4.46422 7.78789 4.53018 8.11948 4.65833 8.42886C4.78648 8.73824 4.97431 9.01935 5.2111 9.25614C5.44789 9.49293 5.729 9.68076 6.03838 9.80891C6.34776 9.93706 6.67935 10.003 7.01422 10.003C7.34909 10.003 7.68068 9.93706 7.99006 9.80891C8.29944 9.68076 8.58055 9.49293 8.81734 9.25614C9.05413 9.01935 9.24196 8.73824 9.37011 8.42886C9.49826 8.11948 9.56422 7.78789 9.56422 7.45302C9.56422 6.77671 9.29556 6.12811 8.81734 5.64989C8.33912 5.17168 7.69052 4.90302 7.01422 4.90302C6.33792 4.90302 5.68931 5.17168 5.2111 5.64989C4.73288 6.12811 4.46422 6.77671 4.46422 7.45302Z" stroke="black" stroke-linecap="round" stroke-linejoin="round"/>
</svg>
