<svg width="15" height="13" viewBox="0 0 15 13" fill="none" xmlns="http://www.w3.org/2000/svg">
<path fill-rule="evenodd" clip-rule="evenodd" d="M3.11805 7.88391C3.14849 7.89405 3.17978 7.9014 3.21155 7.90587C3.41195 8.37809 3.61123 8.85078 3.80938 9.32395C4.16568 10.1754 4.5248 11.0523 4.60343 11.3044C4.70188 11.6147 4.8053 11.8258 4.91863 11.9703C4.97743 12.0439 5.04472 12.1091 5.12405 12.1587C5.16538 12.1846 5.2096 12.2055 5.2558 12.221C5.48247 12.306 5.6893 12.2706 5.81893 12.2274C5.89499 12.2014 5.96737 12.1657 6.03426 12.1212L6.0378 12.1197L8.03955 10.8717L10.3523 12.6439C10.3863 12.6701 10.4231 12.6921 10.4628 12.7098C10.7404 12.8302 11.0096 12.8727 11.2632 12.8387C11.5153 12.8033 11.7158 12.6977 11.8653 12.578C12.0369 12.4397 12.1737 12.2631 12.2648 12.0624L12.2711 12.0468L12.2733 12.0411L12.2747 12.0383V12.0369L12.2754 12.0362C12.2877 12.0057 12.2972 11.9742 12.3037 11.9419L14.4146 1.29924C14.4212 1.26517 14.4245 1.23054 14.4245 1.19582C14.4245 0.884158 14.3069 0.587366 14.0313 0.408158C13.7948 0.25445 13.532 0.247366 13.3655 0.260116C13.187 0.274283 13.0213 0.318199 12.9101 0.353616C12.8478 0.373347 12.7864 0.395559 12.7259 0.420199L12.7181 0.423741L0.879009 5.06757L0.877592 5.06828C0.837536 5.08302 0.798075 5.09932 0.759301 5.11716C0.66542 5.15937 0.575362 5.20961 0.490134 5.26732C0.329342 5.37712 -0.041116 5.67887 0.0219257 6.17753C0.071509 6.5742 0.343509 6.81857 0.509967 6.93616C0.600634 7.00062 0.687051 7.04666 0.750801 7.07712C0.779134 7.09128 0.840051 7.11537 0.866259 7.1267L0.873342 7.12882L3.11805 7.88391ZM13.1325 1.40124H13.1311C13.125 1.40395 13.1188 1.40655 13.1126 1.40903L1.25938 6.05924C1.25329 6.06171 1.24715 6.06407 1.24097 6.06632L1.23388 6.06845C1.21223 6.07696 1.19096 6.08641 1.17013 6.09678C1.18985 6.10808 1.21019 6.11824 1.23105 6.12724L3.45663 6.87666C3.49641 6.89006 3.53445 6.90813 3.56997 6.93049L10.9203 2.62737L10.9274 2.62382C10.956 2.60647 10.9853 2.5904 11.0153 2.57566C11.0663 2.54945 11.1477 2.5112 11.2398 2.48287C11.3036 2.46303 11.4927 2.40707 11.6967 2.47295C11.8049 2.50706 11.9013 2.5709 11.975 2.6572C12.0486 2.7435 12.0965 2.84877 12.1132 2.96099C12.1396 3.05927 12.1403 3.16268 12.1153 3.26132C12.0657 3.45612 11.9297 3.6077 11.8058 3.72387C11.6995 3.82303 10.3211 5.15187 8.9618 6.4637L7.11093 8.2487L6.78155 8.56745L10.9409 11.7564C10.997 11.7799 11.058 11.7896 11.1187 11.7847C11.1492 11.7806 11.178 11.7678 11.2016 11.7479C11.2303 11.7236 11.2549 11.6949 11.2745 11.6629L11.2759 11.6622L13.323 1.33962C13.2585 1.35513 13.1953 1.37549 13.1339 1.40053L13.1325 1.40124ZM7.13926 10.1803L6.30909 9.54424L6.10793 10.8228L7.13926 10.1803ZM5.54763 8.28199L6.37284 7.48512L8.22372 5.6987L8.91293 5.03428L4.29459 7.73799L4.31938 7.79607C4.61065 8.48417 4.89871 9.17362 5.18355 9.86441L5.38401 8.58941C5.40215 8.47115 5.45983 8.36325 5.54763 8.28199Z" fill="black"/>
</svg>
