<svg width="15" height="15" viewBox="0 0 15 15" fill="none" xmlns="http://www.w3.org/2000/svg">
<g clip-path="url(#clip0_73_63)">
<path d="M6.66734 0.455223C5.54384 0.468786 3.12841 0.653411 1.77741 1.89285C0.772469 2.8886 0.421594 4.36079 0.380469 6.18122C0.346344 7.9951 0.305219 11.4015 3.58866 12.329V13.7417C3.58866 13.7417 3.56809 14.3069 3.94172 14.4228C4.40197 14.5685 4.66403 14.1337 5.10153 13.6664L5.91747 12.7437C8.16403 12.9305 9.88472 12.5 10.0829 12.4362C10.5388 12.2905 13.1065 11.9623 13.526 8.55554C13.9565 5.03716 13.3165 2.82035 12.161 1.8176H12.154C11.8053 1.49647 10.404 0.475348 7.27328 0.463973C7.27328 0.463973 7.04097 0.448661 6.66734 0.455223ZM6.70584 1.44441C7.02478 1.44222 7.21859 1.45579 7.21859 1.45579C9.86853 1.46279 11.1333 2.26035 11.4317 2.52897C12.4047 3.36285 12.9061 5.36135 12.539 8.29872C12.1903 11.1468 10.1078 11.3271 9.72241 11.45C9.55834 11.5025 8.04284 11.8762 6.13359 11.7532C6.13359 11.7532 4.71172 13.4691 4.26722 13.911C4.19678 13.9884 4.11453 14.0112 4.06203 13.9998C3.98678 13.9814 3.96403 13.8882 3.96841 13.7605L3.98197 11.4159C1.19728 10.6459 1.36134 7.74047 1.39109 6.22279C1.42522 4.7051 1.71003 3.46347 2.55791 2.6226C3.69934 1.59054 5.75034 1.45141 6.70497 1.44441H6.70584ZM6.91584 2.96166C6.89292 2.96143 6.87019 2.96574 6.84894 2.97433C6.82769 2.98293 6.80836 2.99565 6.79205 3.01176C6.77574 3.02786 6.76278 3.04703 6.75392 3.06817C6.74506 3.08931 6.74046 3.11199 6.74041 3.13491C6.74041 3.23291 6.82003 3.31035 6.91584 3.31035C7.34963 3.3021 7.78075 3.37981 8.18435 3.539C8.58795 3.69818 8.95605 3.9357 9.26741 4.23785C9.90309 4.85516 10.2128 5.68466 10.2247 6.76922C10.2247 6.86504 10.3021 6.94466 10.4001 6.94466V6.93766C10.4463 6.93778 10.4906 6.91963 10.5235 6.88718C10.5564 6.85472 10.5751 6.8106 10.5755 6.76441C10.5968 6.25391 10.514 5.74443 10.3322 5.26692C10.1504 4.78941 9.87344 4.35386 9.51809 3.98672C8.82553 3.30991 7.94791 2.96122 6.91584 2.96122V2.96166ZM4.60978 3.36285C4.48595 3.34475 4.35965 3.36961 4.25191 3.43329H4.24272C3.99258 3.57991 3.76725 3.76523 3.57509 3.98235C3.41541 4.16697 3.32878 4.35379 3.30603 4.5336C3.29247 4.64079 3.30166 4.74797 3.33359 4.85035L3.34497 4.85735C3.52478 5.38585 3.75972 5.89422 4.04672 6.37285C4.41642 7.04527 4.87139 7.66714 5.40034 8.22304L5.41609 8.24579L5.44103 8.26416L5.45678 8.28254L5.47516 8.29829C6.03307 8.82879 6.65644 9.28589 7.33016 9.65847C8.10016 10.0776 8.56741 10.2758 8.84784 10.358V10.3624C8.93009 10.3873 9.00491 10.3987 9.08016 10.3987C9.31916 10.3812 9.54541 10.2842 9.72284 10.1231C9.93898 9.93089 10.1222 9.70464 10.2653 9.45329V9.44891C10.3997 9.19604 10.3542 8.95672 10.1603 8.79485C9.7722 8.45557 9.35247 8.15421 8.90691 7.89491C8.60853 7.73304 8.30534 7.83104 8.18241 7.9951L7.92034 8.32541C7.78603 8.48947 7.54191 8.46672 7.54191 8.46672L7.53491 8.4711C5.71447 8.00604 5.22884 6.16285 5.22884 6.16285C5.22884 6.16285 5.20609 5.91216 5.37453 5.78441L5.70266 5.52016C5.85972 5.39241 5.96909 5.08966 5.80066 4.79085C5.54314 4.34466 5.24245 3.92484 4.90291 3.53741C4.82868 3.44607 4.72454 3.38393 4.60891 3.36197L4.60978 3.36285ZM7.21859 3.8826C6.98628 3.8826 6.98628 4.23347 7.22078 4.23347C7.50965 4.23816 7.79477 4.29973 8.05984 4.41466C8.32491 4.52959 8.56473 4.69563 8.76559 4.90329C8.94883 5.10541 9.08963 5.34226 9.17966 5.5998C9.26969 5.85734 9.30712 6.13033 9.28972 6.4026C9.29052 6.44868 9.30933 6.49261 9.34212 6.52499C9.37491 6.55737 9.41907 6.57563 9.46516 6.57585L9.47216 6.58504C9.51858 6.58469 9.563 6.5661 9.59583 6.53327C9.62866 6.50044 9.64725 6.45602 9.64759 6.4096C9.66334 5.71441 9.44722 5.13122 9.02328 4.66397C8.59716 4.19672 8.00259 3.93466 7.24353 3.8826H7.21859ZM7.50603 4.82585C7.26672 4.81885 7.25753 5.17672 7.49466 5.18372C8.07128 5.21347 8.35128 5.50485 8.38803 6.10422C8.38883 6.14972 8.40741 6.1931 8.43979 6.22507C8.47217 6.25704 8.51578 6.27506 8.56128 6.27529H8.56828C8.59167 6.27428 8.61463 6.26863 8.63582 6.25866C8.65701 6.24868 8.67599 6.23459 8.69167 6.2172C8.70735 6.19981 8.71941 6.17947 8.72715 6.15737C8.73488 6.13527 8.73813 6.11185 8.73672 6.08847C8.69559 5.3071 8.26947 4.86697 7.51303 4.82629L7.50603 4.82585Z" fill="black"/>
</g>
<defs>
<clipPath id="clip0_73_63">
<rect width="14" height="14" fill="white" transform="translate(0.018219 0.453064)"/>
</clipPath>
</defs>
</svg>
