<svg width="15" height="15" viewBox="0 0 15 15" fill="none" xmlns="http://www.w3.org/2000/svg">
<path d="M11.978 2.4901C11.333 1.84185 10.5648 1.32787 9.71807 0.97814C8.87135 0.628409 7.96312 0.449928 7.04636 0.453106C3.20515 0.453106 0.0745005 3.5681 0.0745005 7.39009C0.0745005 8.61508 0.398119 9.80508 1.00314 10.8551L0.018219 14.4531L3.71169 13.4871C4.73179 14.0401 5.87852 14.3341 7.04636 14.3341C10.8876 14.3341 14.0182 11.2191 14.0182 7.39709C14.0182 5.54209 13.2936 3.7991 11.978 2.4901ZM7.04636 13.1581C6.00515 13.1581 4.98505 12.8781 4.09159 12.3531L3.88053 12.2271L1.68556 12.8011L2.26948 10.6731L2.12877 10.4561C1.5503 9.53696 1.24314 8.47455 1.24234 7.39009C1.24234 4.21209 3.84535 1.6221 7.03932 1.6221C8.58706 1.6221 10.0433 2.2241 11.1338 3.3161C11.6737 3.85087 12.1016 4.48696 12.3927 5.18749C12.6837 5.88802 12.8321 6.63906 12.8293 7.39709C12.8433 10.5751 10.2403 13.1581 7.04636 13.1581ZM10.2263 8.84608C10.0504 8.76208 9.19209 8.34208 9.03731 8.27908C8.8755 8.22308 8.76294 8.19508 8.64334 8.36308C8.52375 8.53808 8.19309 8.93008 8.0946 9.04208C7.99611 9.16108 7.89058 9.17508 7.7147 9.08408C7.53882 9.00008 6.97601 8.81108 6.3147 8.22308C5.7941 7.76108 5.44937 7.19409 5.34385 7.01909C5.24535 6.84409 5.32978 6.75309 5.42123 6.66209C5.49862 6.58509 5.59711 6.45909 5.68154 6.36109C5.76596 6.26309 5.80113 6.18609 5.85741 6.07409C5.9137 5.95509 5.88556 5.85709 5.84334 5.77309C5.80113 5.68909 5.44937 4.83509 5.30867 4.48509C5.16797 4.1491 5.02023 4.19109 4.9147 4.18409H4.57701C4.45741 4.18409 4.2745 4.22609 4.11269 4.40109C3.95792 4.57609 3.50767 4.99609 3.50767 5.85009C3.50767 6.70409 4.1338 7.53009 4.21822 7.64208C4.30264 7.76108 5.44937 9.51108 7.1941 10.2601C7.60917 10.4421 7.93279 10.5471 8.18606 10.6241C8.60113 10.7571 8.98103 10.7361 9.28355 10.6941C9.62123 10.6451 10.3177 10.2741 10.4584 9.86808C10.6062 9.46208 10.6062 9.11908 10.5569 9.04208C10.5077 8.96508 10.4021 8.93008 10.2263 8.84608Z" fill="black"/>
</svg>
